<svg viewBox="0 0 1080 1080" xmlns="http://www.w3.org/2000/svg" xml:space="preserve" fill-rule="evenodd" clip-rule="evenodd" stroke-linecap="round" stroke-linejoin="round" stroke-miterlimit="1.6">
<path fill="none" d="M0 0h1080v1080H0z"/>
<path d="M462 944c-13 4-27 7-42 7-43 0-79-21-97-51V695c17 30 54 51 97 51 15 0 29-3 42-8v206ZM846 639a99 99 0 0 0 80-102c8-13 13-29 14-45v188a108 108 0 0 1-13 62c3 37-18 74-55 93-8 5-17 8-25 10l-1-206Z" fill="#7f3a01" stroke="#d28827" stroke-width="4"/>
<path d="M847 845a104 104 0 0 1-110 73V711c19 2 40-2 58-12 26-13 44-36 51-61l1 206ZM737 917a103 103 0 0 1-137 32V745c20 12 46 17 73 11s50-22 64-43v205ZM600 950c-18 14-40 23-66 23-28 0-54-12-72-29V738c18 18 44 29 72 29 25 0 48-8 66-23v206ZM322 900c-48-2-87-41-93-89V605c5 49 45 87 93 90v205ZM229 810a101 101 0 0 1-61-98c-7-13-12-28-12-44h0v-1a107 107 0 0 1 0-8V465c1 15 5 29 12 42v4c0 42 25 78 61 93v206Z" fill="#7f3a01" stroke="#d28827" stroke-width="4"/>
<path d="M528 3074c18-15 43-24 69-23 31 1 58 15 76 37 19-4 40-2 60 7 23 10 41 28 52 49a99 99 0 0 1 89 79 98 98 0 0 1 59 106 105 105 0 0 1 0 104c2 36-18 73-55 93-8 4-17 7-26 9-7 25-25 47-51 61-19 10-39 14-58 12-14 21-37 37-65 43-26 6-52 1-73-11-17 14-40 23-65 23-28 0-54-11-72-29-13 5-28 7-43 7-42 0-79-20-97-51-48-2-87-40-93-89a101 101 0 0 1-61-98 103 103 0 0 1 17-121c2-48 36-87 81-96 8-24 27-47 53-61 21-12 43-17 64-15 13-21 35-38 61-45 28-7 56-3 78 9Z" fill="url(#a)" transform="translate(-7 -2895)"/>
<path d="M520 207c15-14 38-22 63-22 32 0 59 15 72 36 16-13 43-17 69-7 24 10 41 28 45 46 25-1 52 9 72 31 15 15 24 34 27 52a71 71 0 0 1 38 103c13 10 22 25 21 41 0 24-18 44-43 52 15 18 19 43 8 64a57 57 0 0 1-49 30c-6 25-25 49-52 64-24 14-49 18-71 14-6 26-30 46-58 46-20 0-38-10-48-25a90 90 0 0 1-75 33c-35 0-65-18-78-43a59 59 0 0 1-48 24c-32 0-58-24-59-55-26 7-59-3-83-28a95 95 0 0 1-28-72c-22-6-38-20-42-40-3-17 5-34 19-46a62 62 0 0 1-29-53c0-22 13-41 33-52a57 57 0 0 1 57-86c2-24 24-52 58-68 21-10 43-15 61-13 10-18 30-33 55-39 24-5 48 1 65 13Zm-47 493a404 404 0 0 0 135 6 96 96 0 0 1-66 28c-28-1-55-15-69-34Zm229-18c-6 22-25 44-49 44-16 0-27-10-35-22 30-4 58-12 84-22Zm-321-15c25 13 54 24 84 31-9 11-21 19-37 19-27 0-45-25-47-50Zm426-52c-6 21-14 46-37 59-20 10-42 8-60 5 38-16 71-38 97-64Zm-45-4c-15 6-32 8-47 10-92 13-185 20-278 25l-26 2c44 19 95 30 150 29 79-2 151-27 201-66Zm-481-34c22 33 50 61 90 82-24 5-51 5-71-16-18-17-20-45-19-66Zm443-239c-58-2-222 14-333 25-33 4-36 15-33 46 6 55 9 111 16 165 2 14 2 30 12 39 12 10 31 5 47 4 92-9 181-13 273-24 14-2 34-6 42-17 11-15 8-36 7-55-2-49-7-98-15-146-2-13-3-37-16-37Zm134 202c10 15 11 31 3 48-9 15-32 22-50 23 20-21 36-45 47-71ZM325 367c-30 33-47 72-46 113 1 50 26 95 68 129l-3-29c-9-58-18-116-21-174 0-13-1-27 2-39Zm444-23c9 36 14 96 18 173 1 24 8 52-2 73 33-33 52-74 51-118-1-49-26-94-67-128ZM252 505c4 25 8 40 22 62-19-5-34-6-37-22-3-15 3-29 15-40Zm618-48c11 8 23 19 23 31-1 19-13 35-32 43a181 181 0 0 0 9-74Zm-610-40a181 181 0 0 0-8 86 54 54 0 0 1-25-45c1-18 17-32 33-41Zm575-53c19 7 39 19 45 39 4 15-4 30-11 43-5-30-16-57-34-82Zm-424-94c-71 30-125 81-148 140-9-16-15-39-3-54 12-16 31-23 49-20 2-22 22-46 52-60 17-8 34-7 50-6Zm415 81c-21-29-41-43-75-63 21-1 45 8 64 27 13 14 8 21 11 36Zm-121-47c-44-19-95-29-150-29-80 2-152 27-202 66l21-3c97-10 251-33 331-34Zm38-20c-29-17-55-26-91-34 15-9 36-10 57-2s30 19 34 36Zm-222-42c-36 4-70 12-101 25 9-16 25-33 46-37 20-4 40 3 55 12Zm122 6a405 405 0 0 0-114-6 82 82 0 0 1 114 6Z" fill="#421f02"/>
<path d="M516 3101c15-14 38-22 64-22 31 1 59 15 72 36 16-13 43-17 69-6 24 9 40 27 45 46 24-2 51 8 72 30 15 15 24 34 27 52a71 71 0 0 1 38 103c13 10 21 25 21 42 0 23-18 43-44 51 15 18 20 44 8 65a57 57 0 0 1-49 29c-6 25-24 49-51 65-24 13-50 17-72 13-5 26-29 46-57 46-20 0-38-10-49-25a90 90 0 0 1-74 34c-36-1-66-19-78-44a59 59 0 0 1-48 25c-32 0-58-25-59-56-27 7-60-3-84-28a95 95 0 0 1-27-72c-22-5-39-20-42-40-3-17 4-34 18-46a62 62 0 0 1-29-52c1-23 14-42 33-53a57 57 0 0 1 58-85c2-25 24-52 57-69 21-10 43-14 62-13 10-18 30-33 54-38 25-5 48 0 65 12Zm-46 493a404 404 0 0 0 134 6 96 96 0 0 1-65 28c-29 0-56-15-69-34Zm229-18c-6 22-25 45-49 45-16 0-27-11-36-23 30-4 59-12 85-22Zm-321-15c25 13 53 24 83 31-9 11-21 19-36 19-27 0-45-24-47-50Zm426-52c-6 21-15 46-38 59-19 11-41 8-60 5 38-16 71-38 98-64Zm-46-4c-14 6-31 8-46 10-92 14-185 21-278 25l-26 2c43 19 95 30 149 29 80-1 151-26 201-66Zm-479-30c22 33 54 61 93 83-23 4-55 0-76-21-17-17-18-42-17-62Zm441-243c-58-2-221 14-332 25-33 4-36 15-33 46 6 55 9 111 16 166 2 13 1 29 12 38 12 10 31 5 47 4 92-9 181-12 273-24 13-2 34-6 42-17 11-14 8-36 7-54-2-49-7-98-15-147-3-13-3-36-17-37Zm134 202c10 15 12 31 3 48-8 15-31 22-49 23 20-21 36-45 46-71Zm-532-173c-30 33-47 72-46 114 1 49 26 94 68 128l-3-29c-10-57-18-115-21-174-1-12-2-26 2-39Zm444-23c9 36 14 96 17 173 2 24 9 52-1 73 33-33 52-74 51-118-1-49-26-93-67-128Zm-517 161c4 25 13 49 27 71-19-5-39-15-42-31-3-14 3-29 15-40Zm618-48c11 9 22 19 22 32 0 18-13 34-31 42a181 181 0 0 0 9-74Zm-610-40a181 181 0 0 0-8 86 54 54 0 0 1-25-45c0-18 17-31 33-41Zm575-53c19 7 39 19 44 40 4 14-3 29-11 42-4-29-16-57-33-82Zm-425-93c-71 30-124 80-148 139-9-16-14-38-3-54 12-16 31-23 50-20 2-21 22-46 52-60 16-8 34-7 49-5Zm424 92c-20-29-49-54-84-74 22-2 46 8 65 26 13 14 17 32 19 48Zm-130-58c-43-20-95-30-150-29-79 1-151 26-201 66l21-4c97-9 250-32 330-33Zm45-17c-28-17-62-30-97-38 14-8 36-10 57-2s36 24 40 40Zm-228-45c-36 3-70 12-102 24 10-16 26-32 46-37 21-4 41 3 56 13Zm121 5a405 405 0 0 0-113-6 82 82 0 0 1 113 6Z" fill="url(#b)" transform="translate(-6 -2907)"/>
<path d="M207 423c-4 8-2 15-8 18-5 2-6-9-3-19 3-14 22-28 24-22 1 6-8 15-13 23ZM337 254c-24 14-43 34-46 30-4-4 13-26 34-38 31-17 56-16 52-11s-26 10-40 19ZM275 635c19 21 53 27 51 31-3 5-41 1-56-18-23-27-24-57-17-54 5 2 11 29 22 41ZM345 309l-12 10c-31 25-53 60-56 58-7-3 22-46 54-69 47-34 74-44 74-38 0 3-11 4-60 39ZM788 585l8-9c21-25 33-56 36-55 5 2-9 43-31 65-31 33-54 42-54 37 0-2 8-4 41-38ZM335 385c3 11 5 17 6 48 1 36 9 80 0 80-5 1-10-38-12-77-2-33-1-41 0-53 0-9 5-7 6 2ZM374 337c38-9 167-21 202-22 40 0 45 7-15 10-51 4-172 22-185 21-16-1-15-6-2-9ZM437 204c-27 9-33 24-35 20-4-5 11-22 34-31 16-6 39-7 34-2-5 4-17 7-33 13ZM559 188c-14 2-29 14-29 10-1-6 16-17 29-18 10 0 24 3 24 6l-24 2ZM238 334c-19 21-13 36-18 34s-10-24 8-40c14-13 28-18 32-13s-10 7-22 19Z" fill="#fed1aa"/>
<use href="#fa" filter="url(#g0)"/><use href="#fa" filter="url(#g1)"/><use href="#fa" filter="url(#g2)"/><use href="#fa" filter="url(#g3)"/><use href="#fa" filter="url(#g4)"/><use href="#fa" filter="url(#g5)"/><defs>
<g id="fa">
<path d="M513 375c-8 2-41 6-43 22-2 14 30-2 35 2 4 3-2 15-7 20-6 4-19 4-25 6-5 1-13-1-14 2-1 4 4 15 8 17 4 3 18-6 18-1 1 6-9 24-16 33-6 9-17 16-21 24-3 5-12 11-12 16-1 3 6 6 6 7 0 2 5 1 8 0 3-2 10-6 13-10 5-4 9-11 13-17 6-7 13-19 19-24 4-3 14-6 17-5 2 1-1 8-3 11l-19 22c-2 2-11 2-13 4-1 2 6 6 7 7 2 1 15-5 18-4 4 1 4 7 2 9-3 5-16 11-19 17-2 2-8 5-8 8 0 2 6 5 7 6 1 3 6 2 9 1l18-13c3-1 8-3 10-2s2 5 1 8l-8 21c-2 3-5 7-8 6-3 0-7-11-11-10-4 0-16 8-13 14 2 5 21 18 28 20 6 1 12-6 15-10 6-9 13-34 21-42 6-6 23-8 27-5s1 17-4 22c-5 4-22 1-26 4-2 2-6 3-4 6l9 8c5 2 17 1 24-1 10-4 21-21 35-21 14 1 39 20 52 22 7 1 21-6 20-11 0-4-12-13-21-17-11-5-37-7-45-12-6-5-2-17-1-22 0-3 7-5 7-8-1-4-13-10-11-17 2-6 22-16 22-20 0-2-3-6-7-7-6-2-14 4-16 2-4-3-1-11-1-15 1-5 1-14 5-14 5 0 14 9 22 12s16 5 25 6c9 0 24 1 29-2 6-4 10-15 4-18-2-1-4-6-9-7-9-2-23 4-32 2-15-4-43-16-50-21-3-2 6-5 9-7l20-8c3-2 4-6 4-9s-3-5-6-8l-10-10c-9-1-24 30-34 34-6 4-21-4-21-7 1-4 20-9 25-12 2-1 6 0 6-2 0-5-2-21-7-24s-17 2-23 5c-8 5-15 17-22 20-5 4-14 4-19 3-4 0-5-8-9-6Zm84 131c-2-1-22 12-25 16-2 1 5 2 7 3 3 1 7 9 10 6s11-23 8-25Zm-74-105c-3 2-2 7-4 10-2 5-9 15-11 21-1 6-3 16 0 17 4 2 16-7 20-8l6 1c3 2 11 8 12 11 2 2 1 5-1 7l-12 15c-1 2-5 4-5 6s5 2 7 3c2 2 5 6 4 9-1 4-10 12-13 16-2 2-6 4-5 6 2 4 13 14 18 15 6 1 13-5 15-8 1-2-6-4-4-6 6-6 38-22 44-30 4-5-7-9-9-15-1-6 1-18-1-20-3-3-12 1-14 5-2 5 1 14 1 20-1 5-1 10-4 14s-11 14-13 10c-1-1-7-3-7-6 0-7 6-17 6-24 0-9-4-22-3-27 2-4 10 0 14-2 5-2 17-8 21-12 3-2 5-8 4-10-2-2-7-4-10-3-5 2-14 12-19 12-4 0-10-8-9-11s17-4 16-7-14-10-21-11c-8-1-18 0-23 2Z" fill="#431d02"/>
<path d="M507 369c-9 2-41 6-44 22-1 14 30-2 35 2 5 3-2 15-7 20-5 4-19 4-25 6-5 1-12-1-13 2-1 4 3 15 7 17 5 3 18-6 19-1 0 6-10 24-16 33s-18 16-22 24c-4 7-6 19-6 23 0 2 6 1 8 0l14-10 13-17c5-7 12-19 18-24 5-3 15-6 17-5s-1 8-3 11l-19 22c-3 3-8 10-6 11 3 1 15-5 19-4 3 1 3 7 1 9-2 5-15 11-19 17-3 4-2 12-1 14 1 3 6 2 9 1l18-13c3-1 9-3 10-2 2 1 2 5 1 8-1 5-5 16-8 21-2 3-5 7-8 6-3 0-6-11-10-11-4 1-16 9-14 15 3 5 21 18 28 20 6 1 12-6 15-10 6-9 13-34 21-42 7-6 24-8 28-5s1 17-4 22c-5 4-23 1-26 4-4 3 0 11 5 14 4 2 16 1 23-2 10-3 21-20 35-20 14 1 40 20 52 22 8 1 21-6 21-11-1-4-14-12-23-16-11-5-36-7-43-13-6-5-3-17-2-22 0-3 8-5 7-8-1-4-13-10-11-17 2-6 22-16 22-20s-19-1-23-5c-4-3-1-11 0-15 0-5 0-14 4-14 5 0 14 9 22 12s17 5 25 6c10 0 24 1 29-2 6-4 10-15 5-18-7-4-29-1-42-5-15-4-42-16-49-21-3-2 5-5 9-7 4-3 15-6 19-8 3-2 5-6 4-9 0-3-3-6-5-8s-5-7-7-5c-8 4-28 26-37 29-7 3-22-4-22-7 1-4 20-9 25-12 2-1 7 0 6-3 0-3-2-17-8-18-5-1-19 9-26 12-6 3-11 7-17 8-6 2-15 4-20 3-4 0-5-8-8-6Zm84 131c-3-1-23 12-26 15-2 2 5 3 7 4 3 1 7 9 10 6s12-23 9-25Zm-74-105c-4 2-3 7-5 10-2 5-9 15-10 21-2 6-4 16 0 17 3 2 15-7 19-8l6 1 13 11c1 2 0 5-1 7l-12 15c-2 2-6 4-6 6 1 2 6 2 7 3 2 2 6 6 5 9-2 4-11 12-14 16-1 2-6 4-5 6 3 4 13 14 18 15 6 1 13-5 15-8 2-2-6-4-4-6 7-6 38-23 44-30 4-5-7-9-8-15-2-6 1-18-2-20-2-3-11 1-14 5-2 5 1 14 1 20-1 5-1 10-4 14-2 4-11 14-13 10-3-3 0-20-1-30 0-9-4-22-2-27 1-4 9 0 13-2 6-2 17-8 21-12 3-2 5-8 4-10s-7-4-10-3l-18 12c-3 0-5-5-4-7 1-3 12-7 10-11s-14-10-21-11-18 0-22 2Z" fill="#b14d04"/>
<path d="M483 386c-11 5-14 9-16 8-2-2 1-11 11-15 8-3 15-6 16-3 1 2-4 7-11 10ZM555 373c-11 5-20 6-21 5-2-1 10-7 19-12 7-3 11-6 12-3 1 2-4 7-10 10ZM553 445l-6 4c-2 0-2-9 0-10 2-2 11-3 11 0l-5 6ZM454 497c-8 9-9 12-11 11s-1-8 3-13c5-5 26-28 27-25 2 2-13 22-19 27Z" fill="#fed1aa"/>
</g>
<linearGradient id="a" x1="0" y1="0" x2="1" y2="0" gradientUnits="userSpaceOnUse" gradientTransform="scale(778.973) rotate(68 -3 2)">
<stop offset="0" stop-color="#ffbd44"/>
<stop offset=".5" stop-color="#dc8912"/>
<stop offset="1" stop-color="#d07600"/>
</linearGradient>
<linearGradient id="b" x1="0" y1="0" x2="1" y2="0" gradientUnits="userSpaceOnUse" gradientTransform="scale(499.109) rotate(51 -6 4)">
<stop offset="0" stop-color="#bf5802"/>
<stop offset="1" stop-color="#9e3d06"/>
</linearGradient>
<filter id="g0" x="0" y="0%" width="100%" height="33%">
      <feFlood flood-color="hsl(1331deg, 85%, 50%)" result="f" />
      <feOffset in="SourceGraphic" dx="0" dy="3" result="a"/>
      <feOffset in="SourceGraphic" dx="0" dy="3" result="b"/>
      <feColorMatrix in="b" type="hueRotate" values="0" result="m"/>
      <feComposite in="f" in2="a" operator="in" result="c" />
      <feMerge>
        <feMergeNode in = "c" />
        <feMergeNode in = "m" />
      </feMerge>
    </filter><filter id="g1" x="0" y="33%" width="100%" height="16%">
      <feFlood flood-color="hsl(8deg, 85%, 50%)" result="f" />
      <feOffset in="SourceGraphic" dx="-3" dy="-1" result="a"/>
      <feOffset in="SourceGraphic" dx="13" dy="3" result="b"/>
      <feColorMatrix in="b" type="hueRotate" values="0" result="m"/>
      <feComposite in="f" in2="a" operator="in" result="c" />
      <feMerge>
        <feMergeNode in = "c" />
        <feMergeNode in = "m" />
      </feMerge>
    </filter><filter id="g2" x="0" y="49%" width="100%" height="19%">
      <feFlood flood-color="hsl(512deg, 85%, 50%)" result="f" />
      <feOffset in="SourceGraphic" dx="3" dy="-2" result="a"/>
      <feOffset in="SourceGraphic" dx="3" dy="2" result="b"/>
      <feColorMatrix in="b" type="hueRotate" values="0" result="m"/>
      <feComposite in="f" in2="a" operator="in" result="c" />
      <feMerge>
        <feMergeNode in = "c" />
        <feMergeNode in = "m" />
      </feMerge>
    </filter><filter id="g3" x="0" y="68%" width="100%" height="23%">
      <feFlood flood-color="hsl(0deg, 85%, 50%)" result="f" />
      <feOffset in="SourceGraphic" dx="-7" dy="-2" result="a"/>
      <feOffset in="SourceGraphic" dx="9" dy="2" result="b"/>
      <feColorMatrix in="b" type="hueRotate" values="0" result="m"/>
      <feComposite in="f" in2="a" operator="in" result="c" />
      <feMerge>
        <feMergeNode in = "c" />
        <feMergeNode in = "m" />
      </feMerge>
    </filter><filter id="g4" x="0" y="91%" width="100%" height="3%">
      <feFlood flood-color="hsl(0deg, 85%, 50%)" result="f" />
      <feOffset in="SourceGraphic" dx="-38" dy="-2" result="a"/>
      <feOffset in="SourceGraphic" dx="18" dy="2" result="b"/>
      <feColorMatrix in="b" type="hueRotate" values="0" result="m"/>
      <feComposite in="f" in2="a" operator="in" result="c" />
      <feMerge>
        <feMergeNode in = "c" />
        <feMergeNode in = "m" />
      </feMerge>
    </filter><filter id="g5" x="0" y="94%" width="100%" height="26%">
      <feFlood flood-color="hsl(0deg, 85%, 50%)" result="f" />
      <feOffset in="SourceGraphic" dx="-7" dy="-2" result="a"/>
      <feOffset in="SourceGraphic" dx="9" dy="2" result="b"/>
      <feColorMatrix in="b" type="hueRotate" values="0" result="m"/>
      <feComposite in="f" in2="a" operator="in" result="c" />
      <feMerge>
        <feMergeNode in = "c" />
        <feMergeNode in = "m" />
      </feMerge>
    </filter></defs></svg>