<?xml version="1.0" encoding="UTF-8" standalone="no"?>
<!DOCTYPE svg PUBLIC "-//W3C//DTD SVG 1.1//EN" "http://www.w3.org/Graphics/SVG/1.1/DTD/svg11.dtd">
<svg width="100%" height="100%" viewBox="0 0 1080 1080" version="1.1" xmlns="http://www.w3.org/2000/svg" xmlns:xlink="http://www.w3.org/1999/xlink" xml:space="preserve" xmlns:serif="http://www.serif.com/" style="fill-rule:evenodd;clip-rule:evenodd;stroke-linecap:round;stroke-linejoin:round;stroke-miterlimit:1.61585;">
    <g transform="matrix(1,0,0,1,0,-2910.32)">
        <g id="V3" transform="matrix(1,0,0,1,0,2910.32)">
            <rect x="0" y="0" width="1080" height="1080" style="fill:none;"/>
            <g id="Layer4" transform="matrix(1,0,0,1,0,-2910.32)">
                <g transform="matrix(1,0,0,1,-11.142,11.0403)">
                    <path d="M473.607,3843.08C460.574,3847.76 446.237,3850.35 431.189,3850.35C388.634,3850.35 351.757,3829.63 333.914,3799.47L333.701,3594.01C351.544,3624.17 388.421,3644.9 430.977,3644.9C446.024,3644.9 460.361,3642.31 473.395,3637.62L473.607,3843.08Z" style="fill:rgb(127,58,1);stroke:rgb(210,136,39);stroke-width:4px;"/>
                </g>
                <g transform="matrix(1,0,0,1,-11.3692,10.9118)">
                    <path d="M857.852,3538.67C866.568,3536.67 875.226,3533.51 883.589,3529.13C920.315,3509.88 940.833,3472.51 938.239,3436.25C945.854,3422.99 950.662,3407.61 951.743,3391.11L951.743,3579.64C952.081,3583.35 952.23,3587.11 952.178,3590.93C951.925,3609.57 946.927,3626.94 938.452,3641.71C941.045,3677.97 920.527,3715.33 883.802,3734.58C875.438,3738.97 866.781,3742.13 858.064,3744.12L857.852,3538.67Z" style="fill:rgb(127,58,1);stroke:rgb(210,136,39);stroke-width:4px;"/>
                </g>
                <g transform="matrix(1,0,0,1,-11.3692,10.9118)">
                    <path d="M858.064,3744.12C850.704,3768.96 832.869,3791.53 806.978,3805.11C788.093,3815.01 767.707,3818.66 748.506,3816.78L748.294,3611.32C767.495,3613.21 787.88,3609.55 806.766,3599.65C832.656,3586.08 850.491,3563.51 857.852,3538.67L858.064,3744.12Z" style="fill:rgb(127,58,1);stroke:rgb(210,136,39);stroke-width:4px;"/>
                </g>
                <g transform="matrix(1,0,0,1,-11.3692,10.9118)">
                    <path d="M748.506,3816.78C734.656,3837.81 711.985,3853.99 684.264,3859.99C657.958,3865.68 632.001,3861.14 611.204,3849.18L610.991,3643.73C631.788,3655.68 657.745,3660.23 684.052,3654.53C711.773,3648.54 734.443,3632.35 748.294,3611.32L748.506,3816.78Z" style="fill:rgb(127,58,1);stroke:rgb(210,136,39);stroke-width:4px;"/>
                </g>
                <g transform="matrix(1,0,0,1,-11.3692,10.9118)">
                    <path d="M611.204,3849.18C593.803,3863.37 570.893,3872 545.805,3872C517.302,3872 491.608,3860.86 473.607,3843.08L473.395,3637.62C491.395,3655.41 517.089,3666.54 545.593,3666.54C570.68,3666.54 593.591,3657.92 610.991,3643.73L611.204,3849.18Z" style="fill:rgb(127,58,1);stroke:rgb(210,136,39);stroke-width:4px;"/>
                </g>
                <g transform="matrix(1,0,0,1,-11.76,10.9694)">
                    <path d="M333.914,3799.47C285.631,3796.98 246.457,3758.7 241.017,3709.96L240.804,3504.5C246.244,3553.25 285.419,3591.52 333.701,3594.01L333.914,3799.47Z" style="fill:rgb(127,58,1);stroke:rgb(210,136,39);stroke-width:4px;"/>
                </g>
                <g transform="matrix(1,0,0,1,-12.2509,10.1115)">
                    <path d="M241.017,3709.96C205.317,3694.72 180.183,3658.53 180.183,3616.36C180.183,3615.09 180.206,3613.82 180.251,3612.57C173.062,3599.31 168.689,3584.22 167.962,3568.15L167.928,3568.15L167.928,3567.34C167.879,3566.02 167.854,3564.7 167.854,3563.38C167.854,3562.05 167.879,3560.73 167.928,3559.41L167.928,3365.7C169.034,3380.64 173.299,3394.68 180.039,3407.11C179.993,3408.37 179.971,3409.63 179.971,3410.9C179.971,3453.08 205.104,3489.27 240.804,3504.5L241.017,3709.96Z" style="fill:rgb(127,58,1);stroke:rgb(210,136,39);stroke-width:4px;"/>
                </g>
                <g transform="matrix(1,0,0,1,-7.05368,15.5341)">
                    <path d="M528.012,3074.29C546.258,3059.21 570.67,3050.38 597.189,3051.28C628.199,3052.33 655.436,3066.45 672.804,3087.65C691.99,3084.17 712.83,3086.23 732.621,3094.78C756.413,3105.05 774.424,3122.85 784.624,3143.64C820.293,3145.55 854.411,3169.64 869.51,3207.5C871.56,3212.64 873.18,3217.83 874.389,3223.04C909.666,3236.87 934.659,3273.91 934.074,3317.04C934.018,3321.16 933.729,3325.23 933.221,3329.22C941.806,3344.52 946.652,3362.58 946.391,3381.85C946.138,3400.49 941.14,3417.86 932.665,3432.63C935.258,3468.89 914.74,3506.25 878.015,3525.5C869.651,3529.89 860.993,3533.05 852.277,3535.04C844.917,3559.88 827.081,3582.45 801.191,3596.03C782.306,3605.93 761.92,3609.58 742.719,3607.7C728.869,3628.73 706.198,3644.91 678.477,3650.91C652.171,3656.6 626.214,3652.06 605.417,3640.1C588.016,3654.29 565.105,3662.92 540.018,3662.92C511.514,3662.92 485.821,3651.78 467.82,3634C454.786,3638.68 440.449,3641.27 425.402,3641.27C382.847,3641.27 345.97,3620.55 328.127,3590.39C279.844,3587.9 240.669,3549.62 235.23,3500.88C199.53,3485.64 174.396,3449.45 174.396,3407.28C174.396,3406.01 174.419,3404.74 174.464,3403.49C166.566,3388.92 162.067,3372.14 162.067,3354.3C162.067,3326.21 173.214,3300.78 191.2,3282.43C192.733,3234.41 226.852,3194.8 271.544,3186.23C280.179,3161.69 298.807,3139.13 325.171,3124.62C345.992,3113.16 368.475,3108.46 389.497,3109.86C402.343,3088.97 423.658,3072.37 450.249,3065.11C477.957,3057.55 505.889,3061.65 528.012,3074.29Z" style="fill:url(#_Linear1);"/>
                </g>
                <g transform="matrix(1,0,0,1,-6.09605,6.45116)">
                    <g transform="matrix(1,0,0,1,9.44641,9.64327)">
                        <path d="M516.297,3101.47C531.492,3087.48 554.251,3078.76 579.542,3079.15C611.335,3079.64 638.689,3094.4 651.847,3115.49C667.53,3101.84 694.628,3098.4 720.819,3108.59C744.535,3117.82 761.322,3135.81 766.113,3154.51C790.183,3152.76 817.306,3163.35 838.071,3185.06C852.82,3200.47 861.878,3218.89 864.932,3236.92C886.091,3244.38 903.384,3261.72 909.822,3284.99C915.145,3304.23 912.034,3323.85 902.724,3339.89C916.034,3350.44 924.223,3365.24 923.974,3381.5C923.614,3405.11 905.563,3425.09 880.246,3433.21C895.491,3451.18 899.537,3476.5 888.459,3497.61C878.718,3516.17 859.704,3526.87 839.38,3527.47C833.423,3551.93 815.051,3576.08 787.744,3591.57C764.044,3605.02 738.277,3609.3 716.248,3605.28C710.861,3631.48 687.136,3651.25 658.719,3651.25C638.538,3651.25 620.722,3641.28 610.163,3626.12C595.216,3646.61 567.395,3660.16 535.778,3659.68C500.368,3659.13 470.255,3641.12 457.879,3616.02C447.283,3630.93 429.622,3640.7 409.641,3640.7C377.905,3640.7 352.02,3616.05 350.998,3585.31C324.195,3592.12 291.359,3582 267.233,3556.78C247.07,3535.71 237.616,3508.93 239.612,3485.14C217.954,3479.59 201.418,3464.94 197.889,3445.38C194.819,3428.36 202.264,3411.35 216.323,3398.76C198.464,3387.09 186.94,3367.97 187.267,3346.54C187.609,3324.2 200.753,3304.75 220.276,3293.86C208.889,3274.98 209.281,3250.13 223.19,3231.07C236.185,3213.27 257.517,3205.27 277.653,3208.59C279.937,3183.98 302.017,3156.5 335.45,3140.1C356.498,3129.77 378.218,3125.72 396.585,3127.46C407.008,3108.73 426.741,3093.86 451.36,3088.66C475.626,3083.53 499.305,3088.93 516.297,3101.47ZM469.873,3593.99C498.665,3600.15 529.177,3603.23 560.726,3602.73C575.576,3602.5 590.171,3601.48 604.424,3599.73C589.352,3615.14 563.654,3628.32 538.675,3627.94C510.193,3627.51 483.303,3612.83 469.873,3593.99ZM699.044,3575.89C692.846,3597.83 673.827,3620.51 649.67,3620.51C633.894,3620.51 622.993,3609.93 614.166,3598.42C644.219,3593.99 672.731,3586.31 699.044,3575.89ZM377.569,3560.84C402.998,3574.3 431.238,3584.91 461.488,3592.1C452.352,3602.86 440.395,3611.2 424.794,3611.2C397.512,3611.2 379.979,3586.59 377.569,3560.84ZM803.579,3509.15C798.136,3530.02 789.307,3555.07 766.157,3567.89C746.953,3578.53 724.99,3576.1 706.313,3572.92C744.289,3556.91 777.412,3535.11 803.579,3509.15ZM758.302,3505.38C744.062,3511.36 726.594,3513.03 711.598,3515.22C619.692,3528.63 526.847,3535.5 434.086,3540.16C425.684,3540.58 416.81,3541.55 407.937,3542.14C451.369,3561.19 502.672,3571.8 557.47,3570.94C636.854,3569.69 708.15,3544.6 758.302,3505.38ZM277.753,3471.5C299.717,3504.53 328.107,3532.09 367.218,3553.72C343.375,3558.11 316.559,3557.98 296.224,3537.22C279.123,3519.77 276.355,3491.8 277.753,3471.5ZM720.368,3232.14C662.303,3230.14 498.603,3246.08 388.108,3257.39C354.909,3260.79 351.644,3271.82 354.892,3303.32C360.535,3358.04 363.6,3414.17 371.01,3468.69C372.836,3482.12 372.388,3498.28 382.595,3507.12C394.501,3517.44 413.903,3512.21 429.523,3510.77C521.677,3502.28 611.088,3498.61 702.87,3486.75C716.178,3485.03 736.582,3480.78 744.725,3470.05C755.749,3455.51 752.739,3433.92 751.99,3415.63C749.982,3366.64 744.829,3317.66 736.501,3269.34C734.204,3256.01 733.783,3232.6 720.368,3232.14ZM854.261,3434.21C864.168,3448.75 866.065,3465.41 857.284,3481.76C848.97,3497.23 825.688,3503.87 807.669,3505C828.137,3483.76 844.031,3459.88 854.261,3434.21ZM321.871,3261.43C292.145,3293.99 275.078,3332.99 275.733,3374.66C276.509,3424.01 302.005,3468.84 343.638,3503.15C342.37,3493.44 342.137,3483.14 340.684,3474.19C331.331,3416.55 323.022,3358.55 319.869,3300.25C319.188,3287.66 318.431,3273.59 321.871,3261.43ZM766.127,3238.36C775.031,3273.82 779.744,3333.97 783.493,3411.43C784.655,3435.45 792.052,3463.38 781.776,3484.41C814.574,3450.82 833.589,3409.85 832.898,3365.91C832.13,3317.01 807.093,3272.56 766.127,3238.36ZM248.949,3399.08C252.987,3424.27 256.725,3439.25 270.514,3461.24C251.762,3456.08 236.622,3455.26 233.618,3439C230.944,3424.52 237.109,3410.05 248.949,3399.08ZM866.716,3350.97C877.63,3359.64 889.342,3370.41 889.15,3382.68C888.863,3401.01 876.194,3416.86 857.57,3425.27C864.285,3405.62 867.711,3385 867.378,3363.79C867.31,3359.49 867.089,3355.22 866.716,3350.97ZM256.838,3311.16C249.913,3331.1 246.376,3352.01 246.715,3373.55C246.839,3381.4 247.475,3389.16 248.598,3396.8C233.426,3386.43 223.743,3370.09 224.028,3351.85C224.309,3333.93 240.62,3320.64 256.838,3311.16ZM832.12,3258.36C851.016,3265 870.63,3277.32 876.373,3297.59C880.429,3311.9 872.896,3326.99 865.392,3339.86C860.98,3310.66 849.438,3283.17 832.12,3258.36ZM407.382,3164.59C336.484,3194.59 282.587,3244.76 259.304,3304.47C250.315,3288.02 244.871,3265.56 256.461,3250.05C268.192,3234.36 287.452,3227.3 305.632,3230.23C307.694,3208.53 327.628,3184.3 357.812,3169.84C374.437,3161.88 392.112,3163.12 407.382,3164.59ZM822.617,3245.67C801.931,3216.46 781.856,3202.5 747.348,3182.5C768.897,3181.21 793.053,3190.56 811.594,3209.48C824.637,3222.79 819.872,3229.97 822.617,3245.67ZM701.175,3198.64C657.665,3179.47 606.174,3168.76 551.161,3169.63C471.547,3170.88 400.067,3196.12 349.877,3235.55C356.858,3233.86 364.302,3233.13 371.048,3232.44C467.812,3222.53 621.482,3199.56 701.175,3198.64ZM739.828,3177.94C710.858,3161.26 684.493,3152.45 648.748,3144.35C663.245,3135.57 684.811,3134.11 705.735,3142.06C726.909,3150.11 735.314,3161.65 739.828,3177.94ZM518.066,3136.67C481.827,3140.35 447.548,3148.72 416.329,3160.95C426.111,3145.47 442.117,3128.68 462.459,3124.49C482.582,3120.34 502.986,3126.99 518.066,3136.67ZM639.167,3142.31C611.846,3136.85 583.066,3134.14 553.366,3134.61C544.1,3134.76 534.933,3135.21 525.876,3135.95C539.309,3125.02 557.448,3115.8 578.186,3116.11C603.781,3116.49 626.189,3126.88 639.167,3142.31Z" style="fill:rgb(66,31,2);"/>
                    </g>
                    <g transform="matrix(1,0,0,1,-0.13676,-2.70003)">
                        <path d="M516.297,3101.47C531.492,3087.48 554.251,3078.76 579.542,3079.15C611.335,3079.64 638.689,3094.4 651.847,3115.49C667.53,3101.84 694.628,3098.4 720.819,3108.59C744.535,3117.82 761.322,3135.81 766.113,3154.51C790.183,3152.76 817.306,3163.35 838.071,3185.06C852.82,3200.47 861.878,3218.89 864.932,3236.92C886.091,3244.38 903.384,3261.72 909.822,3284.99C915.145,3304.23 912.034,3323.85 902.724,3339.89C916.034,3350.44 924.223,3365.24 923.974,3381.5C923.614,3405.11 905.563,3425.09 880.246,3433.21C895.491,3451.18 899.537,3476.5 888.459,3497.61C878.718,3516.17 859.704,3526.87 839.38,3527.47C833.423,3551.93 815.051,3576.08 787.744,3591.57C764.044,3605.02 738.277,3609.3 716.248,3605.28C710.861,3631.48 687.136,3651.25 658.719,3651.25C638.538,3651.25 620.722,3641.28 610.163,3626.12C595.216,3646.61 567.395,3660.16 535.778,3659.68C500.368,3659.13 470.255,3641.12 457.879,3616.02C447.283,3630.93 429.622,3640.7 409.641,3640.7C377.905,3640.7 352.02,3616.05 350.998,3585.31C324.195,3592.12 291.359,3582 267.233,3556.78C247.07,3535.71 237.616,3508.93 239.612,3485.14C217.954,3479.59 201.418,3464.94 197.889,3445.38C194.819,3428.36 202.264,3411.35 216.323,3398.76C198.464,3387.09 186.94,3367.97 187.267,3346.54C187.609,3324.2 200.753,3304.75 220.276,3293.86C208.889,3274.98 209.281,3250.13 223.19,3231.07C236.185,3213.27 257.517,3205.27 277.653,3208.59C279.937,3183.98 302.017,3156.5 335.45,3140.1C356.498,3129.77 378.218,3125.72 396.585,3127.46C407.008,3108.73 426.741,3093.86 451.36,3088.66C475.626,3083.53 499.305,3088.93 516.297,3101.47ZM469.873,3593.99C498.665,3600.15 529.177,3603.23 560.726,3602.73C575.576,3602.5 590.171,3601.48 604.424,3599.73C589.352,3615.14 563.654,3628.32 538.675,3627.94C510.193,3627.51 483.303,3612.83 469.873,3593.99ZM699.044,3575.89C692.846,3597.83 673.827,3620.51 649.67,3620.51C633.894,3620.51 622.993,3609.93 614.166,3598.42C644.219,3593.99 672.731,3586.31 699.044,3575.89ZM377.569,3560.84C402.998,3574.3 431.238,3584.91 461.488,3592.1C452.352,3602.86 440.395,3611.2 424.794,3611.2C397.512,3611.2 379.979,3586.59 377.569,3560.84ZM803.579,3509.15C798.136,3530.02 789.307,3555.07 766.157,3567.89C746.953,3578.53 724.99,3576.1 706.313,3572.92C744.289,3556.91 777.412,3535.11 803.579,3509.15ZM758.302,3505.38C744.062,3511.36 726.594,3513.03 711.598,3515.22C619.692,3528.63 526.847,3535.5 434.086,3540.16C425.684,3540.58 416.81,3541.55 407.937,3542.14C451.369,3561.19 502.672,3571.8 557.47,3570.94C636.854,3569.69 708.15,3544.6 758.302,3505.38ZM279.204,3474.92C301.168,3507.94 333.25,3536.4 372.361,3558.03C348.518,3562.42 316.559,3557.98 296.224,3537.22C279.123,3519.77 277.806,3495.22 279.204,3474.92ZM720.368,3232.14C662.303,3230.14 498.603,3246.08 388.108,3257.39C354.909,3260.79 351.644,3271.82 354.892,3303.32C360.535,3358.04 363.6,3414.17 371.01,3468.69C372.836,3482.12 372.388,3498.28 382.595,3507.12C394.501,3517.44 413.903,3512.21 429.523,3510.77C521.677,3502.28 611.088,3498.61 702.87,3486.75C716.178,3485.03 736.582,3480.78 744.725,3470.05C755.749,3455.51 752.739,3433.92 751.99,3415.63C749.982,3366.64 744.829,3317.66 736.501,3269.34C734.204,3256.01 733.783,3232.6 720.368,3232.14ZM854.261,3434.21C864.168,3448.75 866.065,3465.41 857.284,3481.76C848.97,3497.23 825.688,3503.87 807.669,3505C828.137,3483.76 844.031,3459.88 854.261,3434.21ZM321.871,3261.43C292.145,3293.99 275.078,3332.99 275.733,3374.66C276.509,3424.01 302.005,3468.84 343.638,3503.15C342.37,3493.44 342.137,3483.14 340.684,3474.19C331.331,3416.55 323.022,3358.55 319.869,3300.25C319.188,3287.66 318.431,3273.59 321.871,3261.43ZM766.127,3238.36C775.031,3273.82 779.744,3333.97 783.493,3411.43C784.655,3435.45 792.052,3463.38 781.776,3484.41C814.574,3450.82 833.589,3409.85 832.898,3365.91C832.13,3317.01 807.093,3272.56 766.127,3238.36ZM248.949,3399.08C252.987,3424.27 262.34,3448.17 276.128,3470.16C257.377,3464.99 236.622,3455.26 233.618,3439C230.944,3424.52 237.109,3410.05 248.949,3399.08ZM866.716,3350.97C877.63,3359.64 889.342,3370.41 889.15,3382.68C888.863,3401.01 876.194,3416.86 857.57,3425.27C864.285,3405.62 867.711,3385 867.378,3363.79C867.31,3359.49 867.089,3355.22 866.716,3350.97ZM256.838,3311.16C249.913,3331.1 246.376,3352.01 246.715,3373.55C246.839,3381.4 247.475,3389.16 248.598,3396.8C233.426,3386.43 223.743,3370.09 224.028,3351.85C224.309,3333.93 240.62,3320.64 256.838,3311.16ZM832.12,3258.36C851.016,3265 870.63,3277.32 876.373,3297.59C880.429,3311.9 872.896,3326.99 865.392,3339.86C860.98,3310.66 849.438,3283.17 832.12,3258.36ZM407.382,3164.59C336.484,3194.59 282.587,3244.76 259.304,3304.47C250.315,3288.02 244.871,3265.56 256.461,3250.05C268.192,3234.36 287.452,3227.3 305.632,3230.23C307.694,3208.53 327.628,3184.3 357.812,3169.84C374.437,3161.88 392.112,3163.12 407.382,3164.59ZM831.263,3257.14C810.578,3227.93 781.856,3202.5 747.348,3182.5C768.897,3181.21 793.053,3190.56 811.594,3209.48C824.637,3222.79 828.519,3241.45 831.263,3257.14ZM701.175,3198.64C657.665,3179.47 606.174,3168.76 551.161,3169.63C471.547,3170.88 400.067,3196.12 349.877,3235.55C356.858,3233.86 364.302,3233.13 371.048,3232.44C467.812,3222.53 621.482,3199.56 701.175,3198.64ZM746.48,3182C717.51,3165.32 684.493,3152.45 648.748,3144.35C663.245,3135.57 684.811,3134.11 705.735,3142.06C726.909,3150.11 741.965,3165.71 746.48,3182ZM518.066,3136.67C481.827,3140.35 447.548,3148.72 416.329,3160.95C426.111,3145.47 442.117,3128.68 462.459,3124.49C482.582,3120.34 502.986,3126.99 518.066,3136.67ZM639.167,3142.31C611.846,3136.85 583.066,3134.14 553.366,3134.61C544.1,3134.76 534.933,3135.21 525.876,3135.95C539.309,3125.02 557.448,3115.8 578.186,3116.11C603.781,3116.49 626.189,3126.88 639.167,3142.31Z" style="fill:url(#_Linear2);"/>
                    </g>
                    <g>
                        <g transform="matrix(0.634538,-0.772891,0.772891,0.634538,-2441.07,1594.6)">
                            <path d="M345.371,3151.06C336.917,3152.55 332.158,3158.41 326.495,3155.73C321.267,3153.25 329.174,3145.79 339.053,3141.1C351.865,3135.02 374.997,3140.39 370.839,3146C367.154,3150.97 354.635,3149.42 345.371,3151.06Z" style="fill:rgb(254,209,170);"/>
                        </g>
                        <g transform="matrix(1,0,0,1,0.847758,3.41092)">
                            <path d="M341.948,3154.36C318.077,3168.94 299.594,3188.02 296.037,3184.8C291.75,3180.92 309.457,3158.32 330.49,3146.45C360.961,3129.24 386.414,3130.09 382.256,3135.7C378.571,3140.67 356.235,3145.64 341.948,3154.36Z" style="fill:rgb(254,209,170);"/>
                        </g>
                        <g transform="matrix(-0.178973,-0.983854,0.983854,-0.178973,-2760.8,4440.1)">
                            <path d="M341.948,3154.36C318.077,3168.94 305.967,3201.75 302.41,3198.53C298.123,3194.64 309.457,3158.32 330.49,3146.45C360.961,3129.24 391.029,3133.78 386.872,3139.39C383.186,3144.36 356.235,3145.64 341.948,3154.36Z" style="fill:rgb(254,209,170);"/>
                        </g>
                        <g transform="matrix(1.5476,0,0,1.95307,-172.582,-2941.86)">
                            <path d="M338.485,3151.16C335.672,3152.77 332.953,3154.46 330.343,3156.2C310.335,3169.47 296.552,3187.18 294.372,3186.21C289.865,3184.54 308.466,3162.48 329.499,3150.61C359.971,3133.4 377.433,3128.49 377.13,3131.41C376.955,3133.09 369.881,3133.18 338.485,3151.16Z" style="fill:rgb(254,209,170);"/>
                        </g>
                        <g transform="matrix(-1.16447,0.153474,-0.214855,-1.6302,1865.23,8574.27)">
                            <path d="M338.485,3151.16C335.672,3152.77 332.953,3154.46 330.343,3156.2C310.335,3169.47 296.552,3187.18 294.372,3186.21C289.865,3184.54 306.295,3161.31 327.328,3149.44C357.8,3132.23 377.433,3128.49 377.13,3131.41C376.955,3133.09 369.881,3133.18 338.485,3151.16Z" style="fill:rgb(254,209,170);"/>
                        </g>
                        <g transform="matrix(1.18276,0.998063,-1.25956,1.49265,4111.19,-1796.18)">
                            <path d="M257.265,3234.42C263.346,3238.18 266.927,3239.88 279.968,3251.45C295.483,3265.23 317.679,3279.94 313.465,3283.12C311.44,3284.64 292.568,3271.08 275.547,3256.73C260.911,3244.39 258.002,3240.78 253.452,3236.03C249.671,3232.08 252.775,3231.64 257.265,3234.42Z" style="fill:rgb(254,209,170);"/>
                        </g>
                        <g transform="matrix(1.18276,0.998063,-1.25956,1.49265,4108.7,-1803.68)">
                            <path d="M260.777,3205.47C275.951,3189.2 334.562,3141.53 351.31,3130.11C371.183,3116.57 376.401,3117.71 348.469,3138.87C324.622,3156.95 272.172,3204.07 265.481,3208.03C257.323,3212.86 255.875,3210.73 260.777,3205.47Z" style="fill:rgb(254,209,170);"/>
                        </g>
                        <g transform="matrix(0.975404,0.220423,-0.220423,0.975404,818.253,-42.4862)">
                            <path d="M328.235,3155.41C304.365,3169.98 301.99,3186.1 298.433,3182.87C294.146,3178.99 304.779,3158.46 324.877,3145.06C339.383,3135.39 361.684,3130.11 357.526,3135.72C353.841,3140.69 342.523,3146.68 328.235,3155.41Z" style="fill:rgb(254,209,170);"/>
                        </g>
                        <g transform="matrix(0.772621,0.634867,-0.634867,0.772621,2333.49,445.76)">
                            <path d="M313.635,3167.68C304.258,3177.39 300.721,3196.5 297.165,3193.27C292.877,3189.39 299.311,3170.03 308.99,3161.08C315.917,3154.67 328.923,3147.5 330.594,3150.15C331.397,3151.42 325.263,3155.64 313.635,3167.68Z" style="fill:rgb(254,209,170);"/>
                        </g>
                        <g transform="matrix(0.928985,-0.370117,0.370117,0.928985,-1236.98,434.561)">
                            <path d="M338.476,3152.96C313.33,3165.2 312.592,3181.09 309.036,3177.86C304.748,3173.98 308.492,3151.21 331.055,3142.59C348.738,3135.84 363.822,3136.45 365.88,3143.12C367.738,3149.15 353.589,3145.6 338.476,3152.96Z" style="fill:rgb(254,209,170);"/>
                        </g>
                    </g>
                </g>
            </g>
            <g transform="matrix(1,0,0,1,-1.78385,-2905.57)">
                <g transform="matrix(1.01401,-0.104985,0.0918659,0.887297,-1047.49,3223.79)">
                    <path d="M1519.14,243.214C1510.47,245.168 1478.43,245.406 1474.63,263.374C1471.39,278.673 1504.12,264.423 1508.24,268.969C1512.36,273.515 1505.02,286.432 1499.35,290.649C1493.67,294.866 1480.59,293.383 1474.2,294.271C1469.8,294.882 1462.24,292.386 1460.99,295.976C1459.74,299.566 1462.74,312.373 1466.71,315.809C1470.69,319.246 1485.02,310.659 1484.85,316.596C1484.68,322.533 1472.81,341.614 1465.69,351.432C1459.11,360.518 1447.43,367.347 1442.17,375.507C1439.05,380.345 1430.09,386.765 1428.75,392.488C1428.07,395.43 1434.15,398.919 1434.14,400.387C1434.13,403.038 1439.54,402.383 1442.03,401.452C1445.72,400.067 1452.17,395.994 1456.3,392.076C1461.09,387.534 1465.85,380.076 1470.77,374.197C1476.59,367.237 1485.03,354.968 1491.25,350.312C1495.87,346.854 1505.95,344.914 1508.08,346.264C1510.21,347.613 1506.54,354.954 1504.03,358.409C1499.88,364.133 1487.72,375.068 1483.18,380.608C1481.69,382.424 1472.29,381.49 1470.77,383.814C1469.54,385.702 1475.88,390.984 1476.76,391.65C1478.71,393.135 1491.71,388.063 1494.87,389.519C1498.03,390.975 1497.88,397.461 1495.72,400.387C1492.45,404.838 1479.08,410.866 1475.2,416.229C1473.19,419.025 1466.84,421.061 1466.66,424.783C1466.55,427.017 1472.12,431.448 1472.5,432.562C1473.44,435.361 1478.46,435.077 1481.23,434.054C1485.85,432.349 1495.3,424.536 1500.2,422.334C1503.4,420.893 1508.9,419.6 1510.64,420.843C1512.38,422.086 1511.56,426.954 1510.64,429.792C1508.93,435.048 1503.54,447.584 1500.41,452.379C1498.5,455.319 1494.81,459.761 1491.89,458.558C1488.97,457.355 1486.82,445.04 1482.89,445.162C1478.96,445.283 1466.52,452.771 1468.33,459.286C1470.17,465.927 1487.13,482.284 1493.97,485.003C1499.56,487.225 1505.76,480.419 1509.36,475.605C1516.05,466.66 1525.43,439.139 1534.1,431.334C1540.9,425.218 1557.88,425.222 1561.42,428.78C1564.96,432.337 1560.65,448.379 1555.33,452.679C1550.02,456.979 1533.27,451.64 1529.52,454.579C1527.14,456.451 1523.33,457.174 1524.94,461.085C1525.86,463.316 1531.26,469.268 1532.87,470.313C1537.29,473.188 1548.61,473.964 1556.06,471.833C1565.89,469.021 1578.54,451.647 1591.82,453.444C1605.88,455.346 1628.73,479.836 1640.42,483.245C1647.92,485.435 1661.56,479.053 1661.93,473.9C1662.3,468.747 1650.69,457.635 1642.64,452.325C1632.4,445.575 1607.46,440.642 1600.5,433.4C1594.83,427.506 1599.51,414.27 1600.87,408.874C1601.77,405.3 1608.84,404.707 1608.66,401.026C1608.43,396.392 1597.05,387.782 1599.51,381.07C1601.95,374.358 1623.11,365.418 1623.36,360.753C1623.46,358.803 1620.83,354.274 1617.07,352.177C1611.87,349.274 1603.02,355.547 1600.99,353.082C1597.5,348.847 1601.2,340.738 1602.44,335.34C1603.63,330.199 1604.13,320.54 1608.44,320.694C1612.76,320.847 1621,332.094 1628.31,336.261C1635.66,340.451 1644.04,344.081 1652.55,345.837C1661.32,347.647 1675.17,350.164 1680.89,347.116C1686.62,344.067 1692.02,332.046 1686.89,327.547C1685.11,325.984 1683.73,320.292 1678.95,318.827C1670.06,316.099 1655.62,321.304 1647.09,317.458C1632.74,310.988 1606.93,294.691 1600.77,288.731C1597.97,286.014 1606.63,283.406 1610.15,281.699C1615.05,279.32 1626.01,277.174 1630.18,274.455C1633.07,272.571 1635.14,268.474 1635.14,265.384C1635.14,262.295 1632.14,258.891 1630.18,255.916C1627.81,252.322 1622.88,244.365 1620.91,243.821C1612.96,241.622 1594.34,274.033 1585.01,277.864C1577.94,280.766 1564.07,270.289 1564.92,266.809C1565.78,263.328 1584.82,259.01 1590.12,256.982C1592.3,256.147 1596.6,256.971 1596.73,254.638C1597,249.704 1596.39,231.341 1591.76,227.381C1587.12,223.421 1575.79,227.38 1568.93,230.877C1561.31,234.767 1553.06,247.254 1546.01,250.717C1540.2,253.569 1531.1,252.905 1526.62,251.655C1523,250.644 1522.81,242.388 1519.14,243.214ZM1587.7,399.653C1585.05,397.591 1564.25,410.683 1560.94,413.812C1558.92,415.716 1565.66,416.728 1567.85,418.428C1570.51,420.49 1573.99,428.91 1576.87,426.186C1580.17,423.057 1590.36,401.715 1587.7,399.653ZM1526.12,274.192C1522.49,275.59 1522.8,281.225 1520.92,284.629C1517.93,290.047 1510.59,299.793 1508.21,306.7C1506.09,312.824 1503.55,323.982 1506.61,326.071C1509.67,328.161 1522.27,320.052 1526.57,319.236C1528.58,318.855 1530.89,319.796 1532.4,321.179C1535.19,323.739 1541.79,331.155 1543.35,334.598C1544.36,336.848 1543.12,339.779 1541.76,341.837C1539.25,345.604 1531.53,353.576 1528.34,357.199C1526.45,359.341 1522.5,361.75 1522.62,363.574C1522.74,365.399 1527.6,365.953 1529.04,368.146C1530.67,370.615 1533.82,375.086 1532.4,378.387C1530.51,382.772 1521.07,390.717 1517.74,394.455C1515.91,396.515 1511.36,398.274 1512.44,400.811C1514.24,405.019 1523.32,417.71 1528.51,419.704C1533.68,421.689 1541.68,415.22 1543.62,412.777C1545.38,410.568 1538,406.857 1540.17,405.049C1547.33,399.069 1580.03,384.524 1586.59,376.902C1590.72,372.116 1580.55,365.552 1579.54,359.317C1578.45,352.59 1582.31,339.571 1580.07,336.54C1577.83,333.509 1568.61,336.916 1566.12,341.131C1563.53,345.516 1565.59,356.669 1564.53,362.849C1563.63,368.133 1562.94,373.973 1559.77,378.21C1556.59,382.448 1547.41,392.218 1545.46,388.275C1544.79,386.906 1539.31,383.992 1539.69,379.96C1540.41,372.377 1547.8,361.543 1548.11,354.55C1548.56,344.378 1546.08,329.212 1548.29,324.004C1549.99,319.988 1557.2,324.633 1561.36,323.297C1567.21,321.414 1579.01,316.352 1583.43,312.703C1586.54,310.127 1588.61,303.992 1587.84,301.403C1587.08,298.813 1582.07,296.41 1578.84,297.165C1574.13,298.267 1564.17,308.412 1559.59,308.012C1555,307.612 1550,297.956 1551.32,294.765C1552.65,291.574 1568.1,292.292 1567.53,288.866C1566.97,285.441 1554.84,276.657 1547.93,274.211C1541.08,271.782 1530.62,272.456 1526.12,274.192Z" style="fill:rgb(67,29,2);"/>
                </g>
                <g transform="matrix(1.01401,-0.104985,0.0918659,0.887297,-1054.22,3217.76)">
                    <path d="M1519.14,243.214C1510.47,245.168 1478.43,245.406 1474.63,263.374C1471.39,278.673 1504.12,264.423 1508.24,268.969C1512.36,273.515 1505.02,286.432 1499.35,290.649C1493.67,294.866 1480.59,293.383 1474.2,294.271C1469.8,294.882 1462.24,292.386 1460.99,295.976C1459.74,299.566 1462.74,312.373 1466.71,315.809C1470.69,319.246 1485.02,310.659 1484.85,316.596C1484.68,322.533 1472.81,341.614 1465.69,351.432C1459.11,360.518 1447.43,367.347 1442.17,375.507C1437.45,382.831 1434.17,396.062 1434.14,400.387C1434.13,403.038 1439.54,402.383 1442.03,401.452C1445.72,400.067 1452.17,395.994 1456.3,392.076C1461.09,387.534 1465.85,380.076 1470.77,374.197C1476.59,367.237 1485.03,354.968 1491.25,350.312C1495.87,346.854 1505.95,344.914 1508.08,346.264C1510.21,347.613 1506.54,354.954 1504.03,358.409C1499.88,364.133 1487.72,375.068 1483.18,380.608C1480.48,383.9 1474.81,390.165 1476.76,391.65C1478.71,393.135 1491.71,388.063 1494.87,389.519C1498.03,390.975 1497.88,397.461 1495.72,400.387C1492.45,404.838 1479.08,410.866 1475.2,416.229C1471.98,420.703 1471.49,429.591 1472.5,432.562C1473.44,435.361 1478.46,435.077 1481.23,434.054C1485.85,432.349 1495.3,424.536 1500.2,422.334C1503.4,420.893 1508.9,419.6 1510.64,420.843C1512.38,422.086 1511.56,426.954 1510.64,429.792C1508.93,435.048 1503.54,447.584 1500.41,452.379C1498.5,455.319 1494.81,459.761 1491.89,458.558C1488.97,457.355 1486.82,445.04 1482.89,445.162C1478.96,445.283 1466.52,452.771 1468.33,459.286C1470.17,465.927 1487.13,482.284 1493.97,485.003C1499.56,487.225 1505.76,480.419 1509.36,475.605C1516.05,466.66 1525.43,439.139 1534.1,431.334C1540.9,425.218 1557.88,425.222 1561.42,428.78C1564.96,432.337 1560.65,448.379 1555.33,452.679C1550.02,456.979 1533.27,451.64 1529.52,454.579C1525.78,457.518 1528.44,467.437 1532.87,470.313C1537.29,473.188 1548.61,473.964 1556.06,471.833C1565.89,469.021 1578.54,451.647 1591.82,453.444C1605.88,455.346 1628.73,479.836 1640.42,483.245C1647.92,485.435 1661.74,478.861 1661.93,473.9C1662.11,468.94 1649.56,458.777 1641.53,453.482C1631.29,446.732 1607.27,440.835 1600.5,433.4C1594.99,427.357 1599.51,414.27 1600.87,408.874C1601.77,405.3 1608.84,404.707 1608.66,401.026C1608.43,396.392 1597.05,387.782 1599.51,381.07C1601.95,374.358 1623.11,365.418 1623.36,360.753C1623.61,356.088 1604.47,357.318 1600.99,353.082C1597.5,348.847 1601.2,340.738 1602.44,335.34C1603.63,330.199 1604.13,320.54 1608.44,320.694C1612.76,320.847 1621,332.094 1628.31,336.261C1635.66,340.451 1644.04,344.081 1652.55,345.837C1661.32,347.647 1675.17,350.164 1680.89,347.116C1686.62,344.067 1692.02,332.046 1686.89,327.547C1681.25,322.604 1659.57,323.081 1647.09,317.458C1632.74,310.988 1606.93,294.691 1600.77,288.731C1597.97,286.014 1606.63,283.406 1610.15,281.699C1615.05,279.32 1626.01,277.174 1630.18,274.455C1633.07,272.571 1635.14,268.474 1635.14,265.384C1635.14,262.295 1632.04,258.631 1630.18,255.916C1628.45,253.385 1626.76,247.757 1624,249.098C1616.47,252.756 1594.85,274.912 1585.01,277.864C1577.68,280.058 1564.07,270.289 1564.92,266.809C1565.78,263.328 1584.82,259.01 1590.12,256.982C1592.3,256.147 1596.67,256.974 1596.73,254.638C1596.82,250.645 1596.26,234.813 1590.7,233.023C1585.13,231.233 1570.79,240.947 1563.34,243.896C1557.57,246.182 1552.08,249.434 1546.01,250.717C1539.89,252.01 1531.1,252.905 1526.62,251.655C1523,250.644 1522.81,242.388 1519.14,243.214ZM1587.7,399.653C1585.05,397.591 1564.25,410.683 1560.94,413.812C1558.92,415.716 1565.66,416.728 1567.85,418.428C1570.51,420.49 1573.99,428.91 1576.87,426.186C1580.17,423.057 1590.36,401.715 1587.7,399.653ZM1526.12,274.192C1522.49,275.59 1522.8,281.225 1520.92,284.629C1517.93,290.047 1510.59,299.793 1508.21,306.7C1506.09,312.824 1503.55,323.982 1506.61,326.071C1509.67,328.161 1522.27,320.052 1526.57,319.236C1528.58,318.855 1530.89,319.796 1532.4,321.179C1535.19,323.739 1541.79,331.155 1543.35,334.598C1544.36,336.848 1543.12,339.779 1541.76,341.837C1539.25,345.604 1531.53,353.576 1528.34,357.199C1526.45,359.341 1522.5,361.75 1522.62,363.574C1522.74,365.399 1527.6,365.953 1529.04,368.146C1530.67,370.615 1533.82,375.086 1532.4,378.387C1530.51,382.772 1521.07,390.717 1517.74,394.455C1515.91,396.515 1511.36,398.274 1512.44,400.811C1514.24,405.019 1523.32,417.71 1528.51,419.704C1533.68,421.689 1541.68,415.22 1543.62,412.777C1545.38,410.568 1538,406.857 1540.17,405.049C1547.33,399.069 1580.03,384.524 1586.59,376.902C1590.72,372.116 1580.55,365.552 1579.54,359.317C1578.45,352.59 1582.31,339.571 1580.07,336.54C1577.83,333.509 1568.61,336.916 1566.12,341.131C1563.53,345.516 1565.59,356.669 1564.53,362.849C1563.63,368.133 1562.94,373.973 1559.77,378.21C1556.59,382.448 1547.41,392.218 1545.46,388.275C1543.52,384.331 1547.64,365.262 1548.11,354.55C1548.56,344.378 1546.08,329.212 1548.29,324.004C1549.99,319.988 1557.2,324.633 1561.36,323.297C1567.21,321.414 1579.01,316.352 1583.43,312.703C1586.54,310.127 1588.61,303.992 1587.84,301.403C1587.08,298.813 1582.07,296.41 1578.84,297.165C1574.13,298.267 1563.24,307.512 1559.59,308.012C1556.85,308.387 1555.88,302.716 1556.94,300.167C1558.27,296.976 1569.04,293.192 1567.53,288.866C1566.03,284.54 1554.84,276.657 1547.93,274.211C1541.08,271.782 1530.62,272.456 1526.12,274.192Z" style="fill:rgb(177,77,4);"/>
                </g>
                <g transform="matrix(0.451722,-0.00591428,0.00557758,0.426006,312.526,1948.06)">
                    <path d="M342.816,3158.67C317.67,3170.91 310.221,3180.2 306.664,3176.98C302.377,3173.09 308.492,3151.21 331.055,3142.59C348.738,3135.84 365.048,3128.37 367.106,3135.04C368.965,3141.06 357.929,3151.32 342.816,3158.67Z" style="fill:rgb(254,209,170);"/>
                </g>
                <g transform="matrix(0.41761,-0.00546767,0.00485114,0.370521,399.4,2110.31)">
                    <path d="M339.972,3157.58C314.826,3169.82 292.565,3174.25 289.008,3171.02C284.721,3167.14 314.862,3151.83 335.409,3140.21C351.995,3130.83 362.879,3123.87 364.937,3130.54C366.796,3136.57 355.085,3150.22 339.972,3157.58Z" style="fill:rgb(254,209,170);"/>
                </g>
                <g transform="matrix(0.451722,-0.00591428,0.00557758,0.426006,394.183,2005.89)">
                    <path d="M315.931,3160.11C310.007,3164.36 307.814,3168.31 303.628,3169.4C299.494,3170.48 299.842,3148.84 303.21,3146.17C307.081,3143.09 327.243,3140.56 327.324,3147.58C327.357,3150.45 321.247,3156.3 315.931,3160.11Z" style="fill:rgb(254,209,170);"/>
                </g>
                <g transform="matrix(0.422414,-0.16017,0.151052,0.398366,-154.271,2187.04)">
                    <path d="M308.984,3176.53C283.837,3188.77 281.491,3193.58 277.934,3190.36C273.647,3186.48 280.925,3172.28 293.335,3165.24C307.711,3157.09 368.721,3124.14 369.89,3131.18C370.923,3137.4 324.096,3169.17 308.984,3176.53Z" style="fill:rgb(254,209,170);"/>
                </g>
            </g>
        </g>
    </g>
    <defs>
        <linearGradient id="_Linear1" x1="0" y1="0" x2="1" y2="0" gradientUnits="userSpaceOnUse" gradientTransform="matrix(295.615,720.701,-720.701,295.615,360.059,2925.1)"><stop offset="0" style="stop-color:rgb(255,189,68);stop-opacity:1"/><stop offset="0.52" style="stop-color:rgb(220,137,18);stop-opacity:1"/><stop offset="1" style="stop-color:rgb(208,118,0);stop-opacity:1"/></linearGradient>
        <linearGradient id="_Linear2" x1="0" y1="0" x2="1" y2="0" gradientUnits="userSpaceOnUse" gradientTransform="matrix(312.903,388.846,-388.846,312.903,419.2,3174.23)"><stop offset="0" style="stop-color:rgb(191,88,2);stop-opacity:1"/><stop offset="1" style="stop-color:rgb(158,61,6);stop-opacity:1"/></linearGradient>
    </defs>
</svg>
