<svg width="448" height="93" viewBox="0 0 448 93" fill="none" xmlns="http://www.w3.org/2000/svg">
<path d="M42.455 10.56C42.7963 11.9253 42.967 13.632 42.967 15.68C42.967 17.6427 42.7963 19.3493 42.455 20.8C42.7963 22.1653 42.967 23.872 42.967 25.92C42.967 27.8827 42.7963 29.5893 42.455 31.04C42.7963 32.4053 42.967 34.112 42.967 36.16C42.967 38.1227 42.7963 39.8293 42.455 41.28C42.7963 42.6453 42.967 44.352 42.967 46.4C42.967 48.3627 42.7963 50.0693 42.455 51.52C42.7963 52.8853 42.967 54.592 42.967 56.64C42.967 58.6027 42.7963 60.3093 42.455 61.76C42.7963 63.1253 42.967 64.832 42.967 66.88C42.967 68.8427 42.7963 70.5493 42.455 72H32.215C31.8737 70.5493 31.703 68.8427 31.703 66.88C31.703 64.832 31.8737 63.1253 32.215 61.76H25.815C25.4737 60.3093 25.303 58.6027 25.303 56.64C25.303 54.592 25.4737 52.8853 25.815 51.52H21.975C21.6337 50.0693 21.463 48.3627 21.463 46.4C21.463 44.352 21.6337 42.6453 21.975 41.28H16.855C16.5137 39.8293 16.343 38.1227 16.343 36.16C16.343 34.112 16.5137 32.4053 16.855 31.04H11.735C12.0763 32.4053 12.247 34.112 12.247 36.16C12.247 38.1227 12.0763 39.8293 11.735 41.28C12.0763 42.6453 12.247 44.352 12.247 46.4C12.247 48.3627 12.0763 50.0693 11.735 51.52C12.0763 52.8853 12.247 54.592 12.247 56.64C12.247 58.6027 12.0763 60.3093 11.735 61.76C12.0763 63.1253 12.247 64.832 12.247 66.88C12.247 68.8427 12.0763 70.5493 11.735 72H1.495C1.15367 70.5493 0.983 68.8427 0.983 66.88C0.983 64.832 1.15367 63.1253 1.495 61.76C1.15367 60.3093 0.983 58.6027 0.983 56.64C0.983 54.592 1.15367 52.8853 1.495 51.52C1.15367 50.0693 0.983 48.3627 0.983 46.4C0.983 44.352 1.15367 42.6453 1.495 41.28C1.15367 39.8293 0.983 38.1227 0.983 36.16C0.983 34.112 1.15367 32.4053 1.495 31.04C1.15367 29.5893 0.983 27.8827 0.983 25.92C0.983 23.872 1.15367 22.1653 1.495 20.8C1.15367 19.3493 0.983 17.6427 0.983 15.68C0.983 13.632 1.15367 11.9253 1.495 10.56C1.15367 9.10933 0.983 7.40266 0.983 5.43999C0.983 3.392 1.15367 1.68533 1.495 0.32H14.295C14.6363 1.68533 14.807 3.392 14.807 5.43999C14.807 7.40266 14.6363 9.10933 14.295 10.56H18.135C18.4763 11.9253 18.647 13.632 18.647 15.68C18.647 17.6427 18.4763 19.3493 18.135 20.8H21.975C22.3163 22.1653 22.487 23.872 22.487 25.92C22.487 27.8827 22.3163 29.5893 21.975 31.04H27.095C27.4363 32.4053 27.607 34.112 27.607 36.16C27.607 38.1227 27.4363 39.8293 27.095 41.28H32.215C31.8737 39.8293 31.703 38.1227 31.703 36.16C31.703 34.112 31.8737 32.4053 32.215 31.04C31.8737 29.5893 31.703 27.8827 31.703 25.92C31.703 23.872 31.8737 22.1653 32.215 20.8C31.8737 19.3493 31.703 17.6427 31.703 15.68C31.703 13.632 31.8737 11.9253 32.215 10.56C31.8737 9.10933 31.703 7.40266 31.703 5.43999C31.703 3.392 31.8737 1.68533 32.215 0.32H42.455C42.7963 1.68533 42.967 3.392 42.967 5.43999C42.967 7.40266 42.7963 9.10933 42.455 10.56ZM68.105 10.56C67.7637 9.10933 67.593 7.40266 67.593 5.43999C67.593 3.392 67.7637 1.68533 68.105 0.32H78.345C78.6863 1.68533 78.857 3.392 78.857 5.43999C78.857 7.40266 78.6863 9.10933 78.345 10.56H68.105ZM88.585 61.76C88.9263 63.1253 89.097 64.832 89.097 66.88C89.097 68.8427 88.9263 70.5493 88.585 72H57.865C57.5237 70.5493 57.353 68.8427 57.353 66.88C57.353 64.832 57.5237 63.1253 57.865 61.76H68.105C67.7637 60.3093 67.593 58.6027 67.593 56.64C67.593 54.592 67.7637 52.8853 68.105 51.52C67.7637 50.0693 67.593 48.3627 67.593 46.4C67.593 44.352 67.7637 42.6453 68.105 41.28C67.7637 39.8293 67.593 38.1227 67.593 36.16C67.593 34.112 67.7637 32.4053 68.105 31.04H60.425C60.0837 29.5893 59.913 27.8827 59.913 25.92C59.913 23.872 60.0837 22.1653 60.425 20.8H78.345C78.6863 22.1653 78.857 23.872 78.857 25.92C78.857 27.8827 78.6863 29.5893 78.345 31.04C78.6863 32.4053 78.857 34.112 78.857 36.16C78.857 38.1227 78.6863 39.8293 78.345 41.28C78.6863 42.6453 78.857 44.352 78.857 46.4C78.857 48.3627 78.6863 50.0693 78.345 51.52C78.6863 52.8853 78.857 54.592 78.857 56.64C78.857 58.6027 78.6863 60.3093 78.345 61.76H88.585ZM139.835 31.04C140.176 32.4053 140.347 34.112 140.347 36.16C140.347 38.1227 140.176 39.8293 139.835 41.28H119.355C119.696 42.6453 119.867 44.352 119.867 46.4C119.867 48.3627 119.696 50.0693 119.355 51.52C119.696 52.8853 119.867 54.592 119.867 56.64C119.867 58.6027 119.696 60.3093 119.355 61.76C119.696 63.1253 119.867 64.832 119.867 66.88C119.867 68.8427 119.696 70.5493 119.355 72H109.115C108.774 70.5493 108.603 68.8427 108.603 66.88C108.603 64.832 108.774 63.1253 109.115 61.76C108.774 60.3093 108.603 58.6027 108.603 56.64C108.603 54.592 108.774 52.8853 109.115 51.52C108.774 50.0693 108.603 48.3627 108.603 46.4C108.603 44.352 108.774 42.6453 109.115 41.28C108.774 39.8293 108.603 38.1227 108.603 36.16C108.603 34.112 108.774 32.4053 109.115 31.04C108.774 29.5893 108.603 27.8827 108.603 25.92C108.603 23.872 108.774 22.1653 109.115 20.8C108.774 19.3493 108.603 17.6427 108.603 15.68C108.603 13.632 108.774 11.9253 109.115 10.56C108.774 9.10933 108.603 7.40266 108.603 5.43999C108.603 3.392 108.774 1.68533 109.115 0.32H139.835C140.176 1.68533 140.347 3.392 140.347 5.43999C140.347 7.40266 140.176 9.10933 139.835 10.56H119.355C119.696 11.9253 119.867 13.632 119.867 15.68C119.867 17.6427 119.696 19.3493 119.355 20.8C119.696 22.1653 119.867 23.872 119.867 25.92C119.867 27.8827 119.696 29.5893 119.355 31.04H139.835ZM196.717 5.43999C196.717 7.40266 196.546 9.10933 196.205 10.56H180.845C181.186 11.9253 181.357 13.632 181.357 15.68C181.357 17.6427 181.186 19.3493 180.845 20.8C181.186 22.1653 181.357 23.872 181.357 25.92C181.357 27.8827 181.186 29.5893 180.845 31.04C181.186 32.4053 181.357 34.112 181.357 36.16C181.357 38.1227 181.186 39.8293 180.845 41.28C181.186 42.6453 181.357 44.352 181.357 46.4C181.357 48.3627 181.186 50.0693 180.845 51.52C181.186 52.8853 181.357 54.592 181.357 56.64C181.357 58.6027 181.186 60.3093 180.845 61.76C181.186 63.1253 181.357 64.832 181.357 66.88C181.357 68.8427 181.186 70.5493 180.845 72H170.605C170.264 70.5493 170.093 68.8427 170.093 66.88C170.093 64.832 170.264 63.1253 170.605 61.76C170.264 60.3093 170.093 58.6027 170.093 56.64C170.093 54.592 170.264 52.8853 170.605 51.52C170.264 50.0693 170.093 48.3627 170.093 46.4C170.093 44.352 170.264 42.6453 170.605 41.28C170.264 39.8293 170.093 38.1227 170.093 36.16C170.093 34.112 170.264 32.4053 170.605 31.04C170.264 29.5893 170.093 27.8827 170.093 25.92C170.093 23.872 170.264 22.1653 170.605 20.8C170.264 19.3493 170.093 17.6427 170.093 15.68C170.093 13.632 170.264 11.9253 170.605 10.56H155.245C154.904 9.10933 154.733 7.40266 154.733 5.43999C154.733 3.392 154.904 1.68533 155.245 0.32H196.205C196.546 1.68533 196.717 3.392 196.717 5.43999ZM247.967 25.92C247.967 27.8827 247.796 29.5893 247.455 31.04H243.615C243.956 32.4053 244.127 34.112 244.127 36.16C244.127 38.1227 243.956 39.8293 243.615 41.28H239.775C240.116 42.6453 240.287 44.352 240.287 46.4C240.287 48.3627 240.116 50.0693 239.775 51.52H237.215C237.556 52.8853 237.727 54.592 237.727 56.64C237.727 58.6027 237.556 60.3093 237.215 61.76H233.375C233.716 63.1253 233.887 64.832 233.887 66.88C233.887 68.8427 233.716 70.5493 233.375 72H230.815C231.156 73.3653 231.327 75.072 231.327 77.12C231.327 79.0827 231.156 80.7893 230.815 82.24H225.695C226.036 83.6053 226.207 85.312 226.207 87.36C226.207 89.3227 226.036 91.0293 225.695 92.48H210.335C209.994 91.0293 209.823 89.3227 209.823 87.36C209.823 85.312 209.994 83.6053 210.335 82.24H220.575C220.234 80.7893 220.063 79.0827 220.063 77.12C220.063 75.072 220.234 73.3653 220.575 72C220.234 70.5493 220.063 68.8427 220.063 66.88C220.063 64.832 220.234 63.1253 220.575 61.76H215.455C215.114 60.3093 214.943 58.6027 214.943 56.64C214.943 54.592 215.114 52.8853 215.455 51.52H212.895C212.554 50.0693 212.383 48.3627 212.383 46.4C212.383 44.352 212.554 42.6453 212.895 41.28H209.055C208.714 39.8293 208.543 38.1227 208.543 36.16C208.543 34.112 208.714 32.4053 209.055 31.04H205.215C204.874 29.5893 204.703 27.8827 204.703 25.92C204.703 23.872 204.874 22.1653 205.215 20.8H215.455C215.796 22.1653 215.967 23.872 215.967 25.92C215.967 27.8827 215.796 29.5893 215.455 31.04H219.295C219.636 32.4053 219.807 34.112 219.807 36.16C219.807 38.1227 219.636 39.8293 219.295 41.28H223.135C223.476 42.6453 223.647 44.352 223.647 46.4C223.647 48.3627 223.476 50.0693 223.135 51.52C223.476 52.8853 223.647 54.592 223.647 56.64C223.647 58.6027 223.476 60.3093 223.135 61.76H226.975C226.634 60.3093 226.463 58.6027 226.463 56.64C226.463 54.592 226.634 52.8853 226.975 51.52H229.535C229.194 50.0693 229.023 48.3627 229.023 46.4C229.023 44.352 229.194 42.6453 229.535 41.28H233.375C233.034 39.8293 232.863 38.1227 232.863 36.16C232.863 34.112 233.034 32.4053 233.375 31.04H237.215C236.874 29.5893 236.703 27.8827 236.703 25.92C236.703 23.872 236.874 22.1653 237.215 20.8H247.455C247.796 22.1653 247.967 23.872 247.967 25.92ZM298.705 61.76C299.046 63.1253 299.217 64.832 299.217 66.88C299.217 68.8427 299.046 70.5493 298.705 72H288.465C288.124 70.5493 287.953 68.8427 287.953 66.88C287.953 64.832 288.124 63.1253 288.465 61.76H284.625C284.284 60.3093 284.113 58.6027 284.113 56.64C284.113 54.592 284.284 52.8853 284.625 51.52H280.785C280.444 50.0693 280.273 48.3627 280.273 46.4C280.273 44.352 280.444 42.6453 280.785 41.28H267.985C268.326 42.6453 268.497 44.352 268.497 46.4C268.497 48.3627 268.326 50.0693 267.985 51.52C268.326 52.8853 268.497 54.592 268.497 56.64C268.497 58.6027 268.326 60.3093 267.985 61.76C268.326 63.1253 268.497 64.832 268.497 66.88C268.497 68.8427 268.326 70.5493 267.985 72H257.745C257.404 70.5493 257.233 68.8427 257.233 66.88C257.233 64.832 257.404 63.1253 257.745 61.76C257.404 60.3093 257.233 58.6027 257.233 56.64C257.233 54.592 257.404 52.8853 257.745 51.52C257.404 50.0693 257.233 48.3627 257.233 46.4C257.233 44.352 257.404 42.6453 257.745 41.28C257.404 39.8293 257.233 38.1227 257.233 36.16C257.233 34.112 257.404 32.4053 257.745 31.04C257.404 29.5893 257.233 27.8827 257.233 25.92C257.233 23.872 257.404 22.1653 257.745 20.8C257.404 19.3493 257.233 17.6427 257.233 15.68C257.233 13.632 257.404 11.9253 257.745 10.56C257.404 9.10933 257.233 7.40266 257.233 5.43999C257.233 3.392 257.404 1.68533 257.745 0.32H293.585C293.926 1.68533 294.097 3.392 294.097 5.43999C294.097 7.40266 293.926 9.10933 293.585 10.56H298.705C299.046 11.9253 299.217 13.632 299.217 15.68C299.217 17.6427 299.046 19.3493 298.705 20.8H296.145C296.486 22.1653 296.657 23.872 296.657 25.92C296.657 27.8827 296.486 29.5893 296.145 31.04H288.465C288.806 32.4053 288.977 34.112 288.977 36.16C288.977 38.1227 288.806 39.8293 288.465 41.28H291.025C291.366 42.6453 291.537 44.352 291.537 46.4C291.537 48.3627 291.366 50.0693 291.025 51.52H294.865C295.206 52.8853 295.377 54.592 295.377 56.64C295.377 58.6027 295.206 60.3093 294.865 61.76H298.705ZM285.905 31.04C285.564 29.5893 285.393 27.8827 285.393 25.92C285.393 23.872 285.564 22.1653 285.905 20.8C285.564 19.3493 285.393 17.6427 285.393 15.68C285.393 13.632 285.564 11.9253 285.905 10.56H267.985C268.326 11.9253 268.497 13.632 268.497 15.68C268.497 17.6427 268.326 19.3493 267.985 20.8C268.326 22.1653 268.497 23.872 268.497 25.92C268.497 27.8827 268.326 29.5893 267.985 31.04H285.905ZM350.467 36.16C350.467 38.1227 350.296 39.8293 349.955 41.28C350.296 42.6453 350.467 44.352 350.467 46.4C350.467 48.3627 350.296 50.0693 349.955 51.52H323.075C323.416 52.8853 323.587 54.592 323.587 56.64C323.587 58.6027 323.416 60.3093 323.075 61.76H344.835C345.176 63.1253 345.347 64.832 345.347 66.88C345.347 68.8427 345.176 70.5493 344.835 72H319.235C318.894 70.5493 318.723 68.8427 318.723 66.88C318.723 64.832 318.894 63.1253 319.235 61.76H312.835C312.494 60.3093 312.323 58.6027 312.323 56.64C312.323 54.592 312.494 52.8853 312.835 51.52H308.995C308.654 50.0693 308.483 48.3627 308.483 46.4C308.483 44.352 308.654 42.6453 308.995 41.28H312.835C312.494 39.8293 312.323 38.1227 312.323 36.16C312.323 34.112 312.494 32.4053 312.835 31.04H319.235C318.894 29.5893 318.723 27.8827 318.723 25.92C318.723 23.872 318.894 22.1653 319.235 20.8H344.835C345.176 22.1653 345.347 23.872 345.347 25.92C345.347 27.8827 345.176 29.5893 344.835 31.04H349.955C350.296 32.4053 350.467 34.112 350.467 36.16ZM339.715 41.28C339.374 39.8293 339.203 38.1227 339.203 36.16C339.203 34.112 339.374 32.4053 339.715 31.04H323.075C323.416 32.4053 323.587 34.112 323.587 36.16C323.587 38.1227 323.416 39.8293 323.075 41.28H339.715ZM369.717 25.92C369.717 27.8827 369.546 29.5893 369.205 31.04H374.325C374.666 32.4053 374.837 34.112 374.837 36.16C374.837 38.1227 374.666 39.8293 374.325 41.28H370.485C370.826 42.6453 370.997 44.352 370.997 46.4C370.997 48.3627 370.826 50.0693 370.485 51.52C370.826 52.8853 370.997 54.592 370.997 56.64C370.997 58.6027 370.826 60.3093 370.485 61.76C370.826 63.1253 370.997 64.832 370.997 66.88C370.997 68.8427 370.826 70.5493 370.485 72H360.245C359.904 70.5493 359.733 68.8427 359.733 66.88C359.733 64.832 359.904 63.1253 360.245 61.76C359.904 60.3093 359.733 58.6027 359.733 56.64C359.733 54.592 359.904 52.8853 360.245 51.52C359.904 50.0693 359.733 48.3627 359.733 46.4C359.733 44.352 359.904 42.6453 360.245 41.28C359.904 39.8293 359.733 38.1227 359.733 36.16C359.733 34.112 359.904 32.4053 360.245 31.04C359.904 29.5893 359.733 27.8827 359.733 25.92C359.733 23.872 359.904 22.1653 360.245 20.8H369.205C369.546 22.1653 369.717 23.872 369.717 25.92ZM401.205 41.28C401.546 42.6453 401.717 44.352 401.717 46.4C401.717 48.3627 401.546 50.0693 401.205 51.52C401.546 52.8853 401.717 54.592 401.717 56.64C401.717 58.6027 401.546 60.3093 401.205 61.76C401.546 63.1253 401.717 64.832 401.717 66.88C401.717 68.8427 401.546 70.5493 401.205 72H390.965C390.624 70.5493 390.453 68.8427 390.453 66.88C390.453 64.832 390.624 63.1253 390.965 61.76C390.624 60.3093 390.453 58.6027 390.453 56.64C390.453 54.592 390.624 52.8853 390.965 51.52C390.624 50.0693 390.453 48.3627 390.453 46.4C390.453 44.352 390.624 42.6453 390.965 41.28C390.624 39.8293 390.453 38.1227 390.453 36.16C390.453 34.112 390.624 32.4053 390.965 31.04H374.325C373.984 29.5893 373.813 27.8827 373.813 25.92C373.813 23.872 373.984 22.1653 374.325 20.8H394.805C395.146 22.1653 395.317 23.872 395.317 25.92C395.317 27.8827 395.146 29.5893 394.805 31.04H401.205C401.546 32.4053 401.717 34.112 401.717 36.16C401.717 38.1227 401.546 39.8293 401.205 41.28ZM447.335 61.76C447.676 63.1253 447.847 64.832 447.847 66.88C447.847 68.8427 447.676 70.5493 447.335 72H426.855C426.514 70.5493 426.343 68.8427 426.343 66.88C426.343 64.832 426.514 63.1253 426.855 61.76H421.735C421.394 60.3093 421.223 58.6027 421.223 56.64C421.223 54.592 421.394 52.8853 421.735 51.52C421.394 50.0693 421.223 48.3627 421.223 46.4C421.223 44.352 421.394 42.6453 421.735 41.28C421.394 39.8293 421.223 38.1227 421.223 36.16C421.223 34.112 421.394 32.4053 421.735 31.04H411.495C411.154 29.5893 410.983 27.8827 410.983 25.92C410.983 23.872 411.154 22.1653 411.495 20.8H421.735C421.394 19.3493 421.223 17.6427 421.223 15.68C421.223 13.632 421.394 11.9253 421.735 10.56C421.394 9.10933 421.223 7.40266 421.223 5.43999C421.223 3.392 421.394 1.68533 421.735 0.32H431.975C432.316 1.68533 432.487 3.392 432.487 5.43999C432.487 7.40266 432.316 9.10933 431.975 10.56C432.316 11.9253 432.487 13.632 432.487 15.68C432.487 17.6427 432.316 19.3493 431.975 20.8H447.335C447.676 22.1653 447.847 23.872 447.847 25.92C447.847 27.8827 447.676 29.5893 447.335 31.04H431.975C432.316 32.4053 432.487 34.112 432.487 36.16C432.487 38.1227 432.316 39.8293 431.975 41.28C432.316 42.6453 432.487 44.352 432.487 46.4C432.487 48.3627 432.316 50.0693 431.975 51.52C432.316 52.8853 432.487 54.592 432.487 56.64C432.487 58.6027 432.316 60.3093 431.975 61.76H447.335Z" fill="white"/>
</svg>
